<svg 
          width="27"
          height="23" fill="none"
          xmlns="http://www.w3.org/2000/svg">
          <path d="M 25.3125 9.858316919684452 L 5.298749774694443 9.858316919684452 L 11.424375772476196 2.6961011291922916 C 11.710809594020247 2.360632309088608 11.8486132590333 1.9281387582869427 11.807472467422485 1.4937630475652184 C 11.76633167581167 1.059387336843494 11.549616266973317 0.6587115928874938 11.205000579357147 0.37988036260932984 C 10.860384891740978 0.10104913233116591 10.416098099201918 -0.03309769459257497 9.969878733158112 0.006951128823680749 C 9.523659367114305 0.04699995223993647 9.112058049067855 0.25796405411746404 8.825624227523804 0.5934328742211478 L 0.3881250321865082 10.449691953324002 C 0.3313586809672415 10.528089173154306 0.2805963079445064 10.610448069008878 0.23624977469444275 10.69609939229823 C 0.23624977469444275 10.778234893191486 0.2362502901814878 10.827516378538505 0.11812528967857361 10.909651879431761 C 0.04163679387420416 11.09800283246979 0.001588142211403465 11.29849855267768 0 11.501026913071312 C 0.001588142211403465 11.703555273464945 0.04163679387420416 11.904050993672834 0.11812528967857361 12.092401946710863 C 0.11812528967857361 12.17453744760412 0.11812477419152856 12.223818932951138 0.23624977469444275 12.305954433844395 C 0.2805963079445064 12.391605757133746 0.3313586809672415 12.473964652988318 0.3881250321865082 12.552361872818622 L 8.825624227523804 22.408620266529457 C 8.98428761959076 22.594053921871883 9.182973928749561 22.74318006098916 9.40755307674408 22.845391226532602 C 9.632132224738598 22.947602392076043 9.877088273875415 23.000388788168802 10.125 22.99999686677934 C 10.519288019277155 23.00074678528281 10.901398977264762 22.867071424497997 11.205000579357147 22.62217432027332 C 11.37587425019592 22.48427031275468 11.517120824893937 22.314903800717563 11.620652318000793 22.123779176329418 C 11.72418381110765 21.932654551941273 11.78796508605592 21.72352754316369 11.80834311246872 21.508370773617383 C 11.82872113888152 21.293214004071075 11.805295226164162 21.076257174777314 11.739407658576965 20.869926932613073 C 11.673520090989769 20.66359669044883 11.566466608084738 20.471946505012404 11.424375772476196 20.3059534802555 L 5.298749774694443 13.143736906458173 L 25.3125 13.143736906458173 C 25.760052843019366 13.143736906458173 26.18927634973079 12.97066585055634 26.505743980407715 12.662597975299187 C 26.82221161108464 12.354530100042034 27 11.936700707321158 27 11.501026913071312 C 27 11.065353118821466 26.82221161108464 10.647523726100593 26.505743980407715 10.33945585084344 C 26.18927634973079 10.031387975586286 25.760052843019366 9.858316919684452 25.3125 9.858316919684452 Z" fill="rgb(255,255,255)"/>
        </svg>