<svg width="48" height="70" viewBox="0 0 48 70" fill="none" xmlns="http://www.w3.org/2000/svg">
<path d="M33.3734 3.92627H9.81568C9.29502 3.92627 8.79569 4.1331 8.42753 4.50126C8.05937 4.86942 7.85254 5.36875 7.85254 5.88941V37.2997C7.85254 37.8203 8.05937 38.3197 8.42753 38.6878C8.79569 39.056 9.29502 39.2628 9.81568 39.2628H11.7788V41.2259C11.7788 41.7466 11.9857 42.2459 12.3538 42.6141C12.722 42.9823 13.2213 43.1891 13.742 43.1891C14.2626 43.1891 14.762 42.9823 15.1301 42.6141C15.4983 42.2459 15.7051 41.7466 15.7051 41.2259V39.2628H33.3734C34.9353 39.2628 36.4333 38.6423 37.5378 37.5378C38.6423 36.4333 39.2628 34.9354 39.2628 33.3734V9.81569C39.2628 8.25372 38.6423 6.75572 37.5378 5.65124C36.4333 4.54676 34.9353 3.92627 33.3734 3.92627ZM27.4839 35.3365H11.7788V7.85255H27.4839V35.3365ZM35.3365 33.3734C35.3365 33.894 35.1297 34.3934 34.7615 34.7615C34.3934 35.1297 33.894 35.3365 33.3734 35.3365H31.4102V7.85255H33.3734C33.894 7.85255 34.3934 8.05938 34.7615 8.42754C35.1297 8.7957 35.3365 9.29503 35.3365 9.81569V33.3734Z" fill="#BBBBC0"/>
<path d="M11.9295 52.624C12.8095 52.624 13.5815 52.796 14.2455 53.14C14.9175 53.484 15.4335 53.976 15.7935 54.616C16.1615 55.248 16.3455 55.984 16.3455 56.824C16.3455 57.664 16.1615 58.4 15.7935 59.032C15.4335 59.656 14.9175 60.14 14.2455 60.484C13.5815 60.828 12.8095 61 11.9295 61H9.00151V52.624H11.9295ZM11.8695 59.572C12.7495 59.572 13.4295 59.332 13.9095 58.852C14.3895 58.372 14.6295 57.696 14.6295 56.824C14.6295 55.952 14.3895 55.272 13.9095 54.784C13.4295 54.288 12.7495 54.04 11.8695 54.04H10.6815V59.572H11.8695ZM18.4551 53.56C18.1591 53.56 17.9111 53.468 17.7111 53.284C17.5191 53.092 17.4231 52.856 17.4231 52.576C17.4231 52.296 17.5191 52.064 17.7111 51.88C17.9111 51.688 18.1591 51.592 18.4551 51.592C18.7511 51.592 18.9951 51.688 19.1871 51.88C19.3871 52.064 19.4871 52.296 19.4871 52.576C19.4871 52.856 19.3871 53.092 19.1871 53.284C18.9951 53.468 18.7511 53.56 18.4551 53.56ZM19.2831 54.352V61H17.6031V54.352H19.2831ZM20.5109 57.652C20.5109 56.98 20.6429 56.384 20.9069 55.864C21.1789 55.344 21.5429 54.944 21.9989 54.664C22.4629 54.384 22.9789 54.244 23.5469 54.244C24.0429 54.244 24.4749 54.344 24.8429 54.544C25.2189 54.744 25.5189 54.996 25.7429 55.3V54.352H27.4349V61H25.7429V60.028C25.5269 60.34 25.2269 60.6 24.8429 60.808C24.4669 61.008 24.0309 61.108 23.5349 61.108C22.9749 61.108 22.4629 60.964 21.9989 60.676C21.5429 60.388 21.1789 59.984 20.9069 59.464C20.6429 58.936 20.5109 58.332 20.5109 57.652ZM25.7429 57.676C25.7429 57.268 25.6629 56.92 25.5029 56.632C25.3429 56.336 25.1269 56.112 24.8549 55.96C24.5829 55.8 24.2909 55.72 23.9789 55.72C23.6669 55.72 23.3789 55.796 23.1149 55.948C22.8509 56.1 22.6349 56.324 22.4669 56.62C22.3069 56.908 22.2269 57.252 22.2269 57.652C22.2269 58.052 22.3069 58.404 22.4669 58.708C22.6349 59.004 22.8509 59.232 23.1149 59.392C23.3869 59.552 23.6749 59.632 23.9789 59.632C24.2909 59.632 24.5829 59.556 24.8549 59.404C25.1269 59.244 25.3429 59.02 25.5029 58.732C25.6629 58.436 25.7429 58.084 25.7429 57.676ZM30.7557 55.384C30.9717 55.032 31.2517 54.756 31.5957 54.556C31.9477 54.356 32.3477 54.256 32.7957 54.256V56.02H32.3517C31.8237 56.02 31.4237 56.144 31.1517 56.392C30.8877 56.64 30.7557 57.072 30.7557 57.688V61H29.0757V54.352H30.7557V55.384ZM40.2873 54.352L36.1713 64.144H34.3833L35.8233 60.832L33.1593 54.352H35.0433L36.7593 58.996L38.4993 54.352H40.2873Z" fill="#BBBBC0"/>
</svg>
