<svg width="49" height="49" viewBox="0 0 49 49" fill="none" xmlns="http://www.w3.org/2000/svg">
<path d="M24.5 0C10.976 0 0 10.976 0 24.5C0 38.024 10.976 49 24.5 49C38.024 49 49 38.024 49 24.5C49 10.976 38.024 0 24.5 0ZM24.5 9.8C29.2285 9.8 33.075 13.6465 33.075 18.375C33.075 23.1035 29.2285 26.95 24.5 26.95C19.7715 26.95 15.925 23.1035 15.925 18.375C15.925 13.6465 19.7715 9.8 24.5 9.8ZM24.5 44.1C19.5265 44.1 13.6465 42.091 9.457 37.044C13.7484 33.677 19.0454 31.8471 24.5 31.8471C29.9546 31.8471 35.2516 33.677 39.543 37.044C35.3535 42.091 29.4735 44.1 24.5 44.1Z" fill="#8A89D1"/>
</svg>
