<svg width="80" height="73" viewBox="0 0 80 73" fill="none" xmlns="http://www.w3.org/2000/svg">
<path d="M53.2083 42.1667H25.7917C24.7529 42.1667 23.7567 41.7628 23.0222 41.0439C22.2876 40.3251 21.875 39.35 21.875 38.3334V11.5C21.875 10.4834 22.2876 9.50835 23.0222 8.78946C23.7567 8.07057 24.7529 7.66671 25.7917 7.66671H29.7083V3.83337H33.625V7.66671H45.375V3.83337H49.2917V7.66671H53.2083C54.2471 7.66671 55.2433 8.07057 55.9778 8.78946C56.7124 9.50835 57.125 10.4834 57.125 11.5V38.3334C57.125 39.35 56.7124 40.3251 55.9778 41.0439C55.2433 41.7628 54.2471 42.1667 53.2083 42.1667ZM25.7917 19.1667V38.3334H53.2083V19.1667H25.7917ZM25.7917 11.5V15.3334H53.2083V11.5H25.7917ZM37.5417 35.2935L30.2821 28.1885L33.0512 25.4783L37.5417 29.8732L45.9488 21.645L48.7179 24.3551L37.5417 35.2916V35.2935Z" fill="#BBBBC0"/>
<path d="M15.482 64L13.634 60.736H12.842V64H11.162V55.624H14.306C14.954 55.624 15.506 55.74 15.962 55.972C16.418 56.196 16.758 56.504 16.982 56.896C17.214 57.28 17.33 57.712 17.33 58.192C17.33 58.744 17.17 59.244 16.85 59.692C16.53 60.132 16.054 60.436 15.422 60.604L17.426 64H15.482ZM12.842 59.476H14.246C14.702 59.476 15.042 59.368 15.266 59.152C15.49 58.928 15.602 58.62 15.602 58.228C15.602 57.844 15.49 57.548 15.266 57.34C15.042 57.124 14.702 57.016 14.246 57.016H12.842V59.476ZM25.0295 60.532C25.0295 60.772 25.0135 60.988 24.9815 61.18H20.1215C20.1615 61.66 20.3295 62.036 20.6255 62.308C20.9215 62.58 21.2855 62.716 21.7175 62.716C22.3415 62.716 22.7855 62.448 23.0495 61.912H24.8615C24.6695 62.552 24.3015 63.08 23.7575 63.496C23.2135 63.904 22.5455 64.108 21.7535 64.108C21.1135 64.108 20.5375 63.968 20.0255 63.688C19.5215 63.4 19.1255 62.996 18.8375 62.476C18.5575 61.956 18.4175 61.356 18.4175 60.676C18.4175 59.988 18.5575 59.384 18.8375 58.864C19.1175 58.344 19.5095 57.944 20.0135 57.664C20.5175 57.384 21.0975 57.244 21.7535 57.244C22.3855 57.244 22.9495 57.38 23.4455 57.652C23.9495 57.924 24.3375 58.312 24.6095 58.816C24.8895 59.312 25.0295 59.884 25.0295 60.532ZM23.2895 60.052C23.2815 59.62 23.1255 59.276 22.8215 59.02C22.5175 58.756 22.1455 58.624 21.7055 58.624C21.2895 58.624 20.9375 58.752 20.6495 59.008C20.3695 59.256 20.1975 59.604 20.1335 60.052H23.2895ZM34.5117 57.256C35.3277 57.256 35.9837 57.508 36.4797 58.012C36.9837 58.508 37.2357 59.204 37.2357 60.1V64H35.5557V60.328C35.5557 59.808 35.4237 59.412 35.1597 59.14C34.8957 58.86 34.5357 58.72 34.0797 58.72C33.6237 58.72 33.2597 58.86 32.9877 59.14C32.7237 59.412 32.5917 59.808 32.5917 60.328V64H30.9117V60.328C30.9117 59.808 30.7797 59.412 30.5157 59.14C30.2517 58.86 29.8917 58.72 29.4357 58.72C28.9717 58.72 28.6037 58.86 28.3317 59.14C28.0677 59.412 27.9357 59.808 27.9357 60.328V64H26.2557V57.352H27.9357V58.156C28.1517 57.876 28.4277 57.656 28.7637 57.496C29.1077 57.336 29.4837 57.256 29.8917 57.256C30.4117 57.256 30.8757 57.368 31.2837 57.592C31.6917 57.808 32.0077 58.12 32.2317 58.528C32.4477 58.144 32.7597 57.836 33.1677 57.604C33.5837 57.372 34.0317 57.256 34.5117 57.256ZM39.682 56.56C39.386 56.56 39.138 56.468 38.938 56.284C38.746 56.092 38.65 55.856 38.65 55.576C38.65 55.296 38.746 55.064 38.938 54.88C39.138 54.688 39.386 54.592 39.682 54.592C39.978 54.592 40.222 54.688 40.414 54.88C40.614 55.064 40.714 55.296 40.714 55.576C40.714 55.856 40.614 56.092 40.414 56.284C40.222 56.468 39.978 56.56 39.682 56.56ZM40.51 57.352V64H38.83V57.352H40.51ZM45.8538 57.256C46.6458 57.256 47.2858 57.508 47.7738 58.012C48.2618 58.508 48.5058 59.204 48.5058 60.1V64H46.8258V60.328C46.8258 59.8 46.6938 59.396 46.4298 59.116C46.1658 58.828 45.8058 58.684 45.3498 58.684C44.8858 58.684 44.5178 58.828 44.2458 59.116C43.9818 59.396 43.8498 59.8 43.8498 60.328V64H42.1698V57.352H43.8498V58.18C44.0738 57.892 44.3578 57.668 44.7018 57.508C45.0538 57.34 45.4378 57.256 45.8538 57.256ZM49.6714 60.652C49.6714 59.98 49.8034 59.384 50.0674 58.864C50.3394 58.344 50.7074 57.944 51.1714 57.664C51.6354 57.384 52.1514 57.244 52.7194 57.244C53.1514 57.244 53.5634 57.34 53.9554 57.532C54.3474 57.716 54.6594 57.964 54.8914 58.276V55.12H56.5954V64H54.8914V63.016C54.6834 63.344 54.3914 63.608 54.0154 63.808C53.6394 64.008 53.2034 64.108 52.7074 64.108C52.1474 64.108 51.6354 63.964 51.1714 63.676C50.7074 63.388 50.3394 62.984 50.0674 62.464C49.8034 61.936 49.6714 61.332 49.6714 60.652ZM54.9034 60.676C54.9034 60.268 54.8234 59.92 54.6634 59.632C54.5034 59.336 54.2874 59.112 54.0154 58.96C53.7434 58.8 53.4514 58.72 53.1394 58.72C52.8274 58.72 52.5394 58.796 52.2754 58.948C52.0114 59.1 51.7954 59.324 51.6274 59.62C51.4674 59.908 51.3874 60.252 51.3874 60.652C51.3874 61.052 51.4674 61.404 51.6274 61.708C51.7954 62.004 52.0114 62.232 52.2754 62.392C52.5474 62.552 52.8354 62.632 53.1394 62.632C53.4514 62.632 53.7434 62.556 54.0154 62.404C54.2874 62.244 54.5034 62.02 54.6634 61.732C54.8234 61.436 54.9034 61.084 54.9034 60.676ZM64.4162 60.532C64.4162 60.772 64.4002 60.988 64.3682 61.18H59.5082C59.5482 61.66 59.7162 62.036 60.0122 62.308C60.3082 62.58 60.6722 62.716 61.1042 62.716C61.7282 62.716 62.1722 62.448 62.4362 61.912H64.2482C64.0562 62.552 63.6882 63.08 63.1442 63.496C62.6002 63.904 61.9322 64.108 61.1402 64.108C60.5002 64.108 59.9242 63.968 59.4122 63.688C58.9082 63.4 58.5122 62.996 58.2242 62.476C57.9442 61.956 57.8042 61.356 57.8042 60.676C57.8042 59.988 57.9442 59.384 58.2242 58.864C58.5042 58.344 58.8962 57.944 59.4002 57.664C59.9042 57.384 60.4842 57.244 61.1402 57.244C61.7722 57.244 62.3362 57.38 62.8322 57.652C63.3362 57.924 63.7242 58.312 63.9962 58.816C64.2762 59.312 64.4162 59.884 64.4162 60.532ZM62.6762 60.052C62.6682 59.62 62.5122 59.276 62.2082 59.02C61.9042 58.756 61.5322 58.624 61.0922 58.624C60.6762 58.624 60.3242 58.752 60.0362 59.008C59.7562 59.256 59.5842 59.604 59.5202 60.052H62.6762ZM67.3225 58.384C67.5385 58.032 67.8185 57.756 68.1625 57.556C68.5145 57.356 68.9145 57.256 69.3625 57.256V59.02H68.9185C68.3905 59.02 67.9905 59.144 67.7185 59.392C67.4545 59.64 67.3225 60.072 67.3225 60.688V64H65.6425V57.352H67.3225V58.384Z" fill="#BBBBC0"/>
</svg>
